<svg width="19" height="19" viewBox="0 0 19 19" fill="none" xmlns="http://www.w3.org/2000/svg">
<path fill-rule="evenodd" clip-rule="evenodd" d="M6.67493 14.9937C6.67493 15.0682 6.58932 15.1277 6.48138 15.1277C6.35856 15.1389 6.27295 15.0793 6.27295 14.9937C6.27295 14.9193 6.35856 14.8597 6.46649 14.8597C6.57816 14.8486 6.67493 14.9081 6.67493 14.9937ZM5.51742 14.8261C5.49137 14.9005 5.56581 14.9861 5.67747 15.0085C5.77424 15.0457 5.8859 15.0085 5.90823 14.934C5.93056 14.8596 5.85985 14.774 5.74819 14.7405C5.65141 14.7144 5.54347 14.7516 5.51742 14.8261V14.8261ZM7.16255 14.7626C7.05462 14.7886 6.98018 14.8594 6.99134 14.945C7.00251 15.0194 7.09928 15.0678 7.21094 15.0417C7.31888 15.0157 7.39332 14.945 7.38215 14.8705C7.37099 14.7998 7.27049 14.7514 7.16255 14.7626ZM9.61164 0.5C4.44919 0.5 0.500122 4.41929 0.500122 9.58175C0.500122 13.7095 3.0981 17.2417 6.80896 18.4848C7.28538 18.5704 7.45287 18.2764 7.45287 18.0345C7.45287 17.8037 7.4417 16.5308 7.4417 15.7491C7.4417 15.7491 4.83628 16.3074 4.28915 14.64C4.28915 14.64 3.86483 13.5569 3.25442 13.2777C3.25442 13.2777 2.40208 12.6934 3.31397 12.7045C3.31397 12.7045 4.24076 12.779 4.75068 13.6648C5.5658 15.1015 6.93178 14.6884 7.46403 14.4427C7.54964 13.8472 7.79157 13.434 8.05956 13.1884C5.97895 12.9576 3.87972 12.6561 3.87972 9.07555C3.87972 8.05199 4.1626 7.53835 4.75812 6.88328C4.66135 6.64134 4.34498 5.64384 4.85489 4.35602C5.6328 4.11409 7.42309 5.36097 7.42309 5.36097C8.1675 5.15253 8.96773 5.04459 9.76053 5.04459C10.5533 5.04459 11.3536 5.15253 12.098 5.36097C12.098 5.36097 13.8883 4.11037 14.6662 4.35602C15.1761 5.64756 14.8597 6.64134 14.7629 6.88328C15.3585 7.54207 15.7232 8.05571 15.7232 9.07555C15.7232 12.6673 13.5309 12.9539 11.4503 13.1884C11.7928 13.4824 12.0831 14.0407 12.0831 14.9154C12.0831 16.1697 12.0719 17.7218 12.0719 18.027C12.0719 18.269 12.2431 18.563 12.7158 18.4774C16.4378 17.2417 18.9614 13.7095 18.9614 9.58175C18.9614 4.41929 14.7741 0.5 9.61164 0.5ZM4.1179 13.3372C4.06951 13.3745 4.08067 13.4601 4.14395 13.5308C4.2035 13.5903 4.28911 13.6164 4.33749 13.568C4.38588 13.5308 4.37472 13.4452 4.31144 13.3745C4.25189 13.3149 4.16628 13.2889 4.1179 13.3372ZM3.71593 13.0358C3.68988 13.0842 3.7271 13.1437 3.80154 13.181C3.86109 13.2182 3.93553 13.207 3.96159 13.1549C3.98764 13.1065 3.95042 13.047 3.87598 13.0097C3.80154 12.9874 3.74199 12.9986 3.71593 13.0358ZM4.92187 14.3608C4.86231 14.4092 4.88465 14.5209 4.97025 14.5916C5.05586 14.6772 5.1638 14.6884 5.21218 14.6288C5.26057 14.5804 5.23824 14.4688 5.1638 14.398C5.08191 14.3124 4.97025 14.3013 4.92187 14.3608ZM4.49755 13.8137C4.43799 13.8509 4.43799 13.9477 4.49755 14.0333C4.5571 14.1189 4.65759 14.1561 4.70598 14.1189C4.76553 14.0705 4.76553 13.9737 4.70598 13.8881C4.65387 13.8025 4.5571 13.7653 4.49755 13.8137V13.8137Z" fill="black"/>
</svg>
